<svg width="113" height="113" viewBox="0 0 113 113" fill="none" xmlns="http://www.w3.org/2000/svg">
<g filter="url(#filter0_d)">
<circle cx="56.5" cy="46.4424" r="36" fill="#E3B873"/>
</g>
<path d="M56.8396 53.7206C56.4614 53.7206 56.1526 54.0199 56.1526 54.3917V55.7163C56.1526 56.0881 56.4614 56.3873 56.8396 56.3873C57.2178 56.3873 57.5265 56.0881 57.5265 55.7163V54.3917C57.5265 54.0199 57.2178 53.7206 56.8396 53.7206Z" fill="white" stroke="white" stroke-width="0.1"/>
<path d="M74.0581 44.5196L74.0581 44.5195C73.6069 42.3617 72.5951 40.3276 71.1321 38.637C69.7237 37.0094 67.9214 35.7281 65.9118 34.9205C65.5828 33.5844 64.8927 32.2068 63.5386 31.1694C62.2205 30.1597 60.8931 29.965 60.8338 29.9567L60.8338 29.9567C60.6374 29.9294 60.4377 29.9864 60.2872 30.1137C60.1366 30.241 60.0498 30.426 60.0498 30.621V33.9245H57.8254C57.236 32.0104 55.4142 30.6124 53.2634 30.6124C51.0652 30.6124 49.2096 32.0724 48.6632 34.0515C45.5152 34.4772 42.6197 35.968 40.4692 38.2815L40.5059 38.3155L40.4692 38.2815C38.2 40.723 36.95 43.8838 36.95 47.1816C36.95 54.5712 40.8839 60.5815 42.0891 62.247C42.4705 62.7741 43.0945 63.0883 43.7582 63.0883H46.4692C47.5961 63.0883 48.515 62.1942 48.515 61.0924V60.2908C49.1849 60.3885 49.8649 60.4386 50.5457 60.4386H56.6528V61.0924C56.6528 62.1942 57.5717 63.0883 58.6986 63.0883H61.6765C62.634 63.0883 63.4756 62.4258 63.6767 61.5109L63.9969 60.0543C68.173 59.0528 71.5324 56.1963 73.1959 52.4897H75.6837C76.4359 52.4897 77.05 51.8928 77.05 51.1562V45.8568C77.05 45.5001 76.9075 45.165 76.6493 44.9133C76.3912 44.6617 76.0483 44.5232 75.6838 44.5232H75.6837H75.6837H75.6837H75.6836H75.6836H75.6836H75.6835L74.0592 44.5235C74.0587 44.5222 74.0584 44.5208 74.0581 44.5196ZM75.6762 51.1061H75.6761V51.1475H73.7111C74.0469 50.104 74.2538 49.0081 74.3138 47.8788C74.3337 47.5075 74.0411 47.1929 73.6633 47.1739C73.2857 47.1552 72.9615 47.4379 72.9418 47.8092C72.6746 52.8318 69.1861 57.1253 64.3218 58.5756L65.1936 54.6093C65.2736 54.2456 65.0358 53.8896 64.6656 53.8123C64.2961 53.7348 63.9301 53.9644 63.8503 54.3276L62.3334 61.2291C62.2678 61.5277 61.9919 61.7462 61.6765 61.7462H58.6984C58.3268 61.7462 58.0266 61.4516 58.0266 61.0923V58.4426C58.0266 58.0708 57.7178 57.7716 57.3396 57.7716C56.9614 57.7716 56.6527 58.0708 56.6527 58.4426V59.0964H50.5455C49.8637 59.0964 49.1831 59.0405 48.5148 58.9317V54.4682C48.5148 54.0964 48.2061 53.7972 47.8279 53.7972C47.4497 53.7972 47.1409 54.0964 47.1409 54.4682V61.0924C47.1409 61.4517 46.8407 61.7462 46.4691 61.7462H43.7582C43.5355 61.7462 43.3366 61.6461 43.2111 61.4725L43.2111 61.4725C42.0641 59.8872 38.3239 54.1733 38.3239 47.1815C38.3239 44.2181 39.4469 41.3778 41.4864 39.1836L41.4498 39.1496L41.4864 39.1836C43.3401 37.1892 45.8092 35.875 48.5037 35.4329C48.5187 35.8208 48.5834 36.2044 48.695 36.5742H48.5074C48.1292 36.5742 47.8205 36.8734 47.8205 37.2452C47.8205 37.617 48.1292 37.9162 48.5074 37.9162H58.0191C58.3974 37.9162 58.7061 37.617 58.7061 37.2452C58.7061 36.8734 58.3974 36.5742 58.0191 36.5742H57.8315C57.9592 36.1516 58.0258 35.7112 58.0266 35.2665H60.0498V36.5827C60.0498 36.9545 60.3585 37.2538 60.7367 37.2538C61.1149 37.2538 61.4237 36.9545 61.4237 36.5827V31.5087C62.0183 31.7379 62.843 32.1864 63.5288 33.0419C64.2404 33.9294 64.8056 35.2588 64.8056 37.2453C64.8056 37.6171 65.1144 37.9163 65.4926 37.9163C65.8708 37.9163 66.1795 37.6171 66.1795 37.2453C66.1795 37.0074 66.1716 36.7575 66.1536 36.4997C67.6527 37.2245 68.9978 38.2496 70.0829 39.5035C71.3977 41.023 72.3068 42.8504 72.712 44.7882C72.8426 45.413 73.4049 45.8657 74.0487 45.8656L75.6762 45.8655V51.1061ZM53.2633 31.9546C55.1334 31.9546 56.6527 33.4378 56.6527 35.2581C56.6527 35.7129 56.5552 36.1612 56.371 36.5743H50.1555C49.9714 36.1611 49.8737 35.7129 49.8737 35.2581C49.8737 33.4377 51.3931 31.9546 53.2633 31.9546Z" fill="white" stroke="white" stroke-width="0.1"/>
<path d="M64.4116 44.8828L64.4116 44.8828C64.815 43.8281 65.8808 43.1218 67.0621 43.1218C68.2433 43.1218 69.3093 43.8281 69.7125 44.8828C69.7125 44.8828 69.7125 44.8828 69.7125 44.8829L69.6658 44.9007C69.7887 45.222 69.6211 45.5797 69.2915 45.6995L64.4116 44.8828ZM64.4116 44.8828C64.2784 45.2312 64.4605 45.6175 64.8155 45.7465M64.4116 44.8828L64.8155 45.7465M64.8155 45.7465C65.17 45.8755 65.5657 45.7001 65.6986 45.3524L64.8155 45.7465ZM69.0691 45.7888C69.1488 45.7888 69.2297 45.7752 69.3086 45.7465L65.6986 45.3524C65.9011 44.8229 66.4479 44.4638 67.062 44.4638C67.6761 44.4638 68.223 44.8229 68.4255 45.3524C68.5289 45.6229 68.7913 45.7888 69.0691 45.7888Z" fill="white" stroke="white" stroke-width="0.1"/>
<path d="M55.7116 47.5181C55.0601 47.0763 54.2201 46.8056 53.4502 46.5933V43.5143C54.0451 43.5915 54.5484 43.7638 54.9047 43.9765C55.2758 44.1982 55.4733 44.4545 55.4733 44.683C55.4733 45.0548 55.7821 45.354 56.1603 45.354C56.5385 45.354 56.8472 45.0548 56.8472 44.683C56.8472 44.0274 56.4732 43.4413 55.8589 42.9981C55.254 42.5617 54.4127 42.2606 53.4502 42.1628V42.1368C53.4502 41.765 53.1414 41.4657 52.7632 41.4657C52.385 41.4657 52.0763 41.765 52.0763 42.1368V42.1628C51.1138 42.2606 50.2724 42.5617 49.6676 42.9981C49.0533 43.4413 48.6792 44.0274 48.6792 44.683C48.6792 45.6105 49.1508 46.2414 49.8149 46.6918C50.4663 47.1336 51.3064 47.4043 52.0763 47.6166V50.6955C51.4814 50.6184 50.9781 50.4461 50.6218 50.2333C50.2506 50.0117 50.0532 49.7554 50.0532 49.5269C50.0532 49.1551 49.7444 48.8559 49.3662 48.8559C48.988 48.8559 48.6792 49.1551 48.6792 49.5269C48.6792 50.1825 49.0533 50.7686 49.6676 51.2118C50.2724 51.6482 51.1138 51.9492 52.0763 52.0471V52.0731C52.0763 52.4449 52.385 52.7441 52.7632 52.7441C53.1414 52.7441 53.4502 52.4449 53.4502 52.0731V52.0471C54.4127 51.9492 55.254 51.6482 55.8589 51.2118C56.4732 50.7686 56.8472 50.1825 56.8472 49.5269C56.8472 48.5993 56.3757 47.9684 55.7116 47.5181ZM52.0763 43.5143V46.2105C51.3286 45.9782 50.8248 45.757 50.5067 45.5156C50.1827 45.2699 50.0532 45.0051 50.0532 44.683C50.0532 44.4545 50.2506 44.1982 50.6218 43.9765C50.9781 43.7638 51.4814 43.5915 52.0763 43.5143ZM54.9047 50.2334C54.5484 50.4462 54.045 50.6185 53.4502 50.6956V47.9994C54.1979 48.2317 54.7016 48.4529 55.0198 48.6943C55.3437 48.94 55.4733 49.2049 55.4733 49.527C55.4733 49.7554 55.2758 50.0117 54.9047 50.2334Z" fill="white" stroke="white" stroke-width="0.1"/>
<defs>
<filter id="filter0_d" x="0.5" y="0.442383" width="112" height="112" filterUnits="userSpaceOnUse" color-interpolation-filters="sRGB">
<feFlood flood-opacity="0" result="BackgroundImageFix"/>
<feColorMatrix in="SourceAlpha" type="matrix" values="0 0 0 0 0 0 0 0 0 0 0 0 0 0 0 0 0 0 127 0"/>
<feOffset dy="10"/>
<feGaussianBlur stdDeviation="10"/>
<feColorMatrix type="matrix" values="0 0 0 0 0.929412 0 0 0 0 0.752941 0 0 0 0 0.470588 0 0 0 0.2 0"/>
<feBlend mode="normal" in2="BackgroundImageFix" result="effect1_dropShadow"/>
<feBlend mode="normal" in="SourceGraphic" in2="effect1_dropShadow" result="shape"/>
</filter>
</defs>
</svg>
